<?xml version="1.0" standalone="no"?>
<!DOCTYPE svg PUBLIC "-//W3C//DTD SVG 20010904//EN"
 "http://www.w3.org/TR/2001/REC-SVG-20010904/DTD/svg10.dtd">
<svg version="1.0" xmlns="http://www.w3.org/2000/svg"
 width="590.000000pt" height="590.000000pt" viewBox="0 0 590.000000 590.000000"
 preserveAspectRatio="xMidYMid meet">
<metadata>
Created by potrace 1.14, written by Peter Selinger 2001-2017
</metadata>
<g transform="translate(0.000000,590.000000) scale(0.100000,-0.100000)"
fill="#000000" stroke="none">
<path d="M2998 5469 c-39 -10 -86 -46 -103 -78 -16 -32 -6 -90 19 -110 11 -10
22 0 52 46 42 62 78 79 104 48 11 -13 9 -23 -13 -63 -33 -62 -39 -102 -21
-168 8 -30 14 -58 14 -61 0 -3 -28 -2 -62 2 -186 20 -195 19 -217 -16 -22 -37
-25 -122 -6 -172 25 -66 66 -101 116 -100 64 1 79 22 79 111 l0 74 48 -6 c81
-12 105 -24 164 -85 70 -71 120 -98 154 -82 25 11 84 86 84 106 0 7 -30 17
-70 24 -81 15 -87 27 -40 81 16 19 29 40 30 45 0 6 7 23 15 38 19 38 21 72 6
126 -44 157 -219 276 -353 240z"/>
<path d="M2843 4557 c-50 -73 -67 -117 -61 -156 4 -28 3 -29 -49 -33 -41 -4
-60 -11 -83 -33 -44 -42 -73 -140 -77 -255 -3 -108 7 -153 61 -282 164 -396
163 -389 32 -451 -50 -24 -83 -48 -102 -73 l-29 -38 0 -175 c0 -97 -3 -185 -8
-196 -4 -12 -33 -36 -65 -55 -115 -69 -185 -119 -203 -147 -27 -40 -24 -85 7
-118 30 -32 42 -26 60 33 19 58 64 175 70 181 3 3 8 1 12 -5 4 -5 40 -34 81
-64 65 -47 79 -54 123 -54 47 -1 53 2 88 42 28 31 49 74 80 160 23 64 49 136
57 160 37 100 72 108 235 53 l117 -39 6 41 c4 23 8 49 10 57 1 8 6 38 9 65 11
76 15 83 51 101 45 21 93 70 111 113 18 44 18 91 -2 162 -21 75 -13 106 32
125 19 8 39 12 45 8 5 -3 54 -7 109 -9 126 -4 149 12 140 100 -3 29 -34 97
-56 120 -11 11 -45 48 -76 83 l-57 62 14 41 c19 54 19 97 -1 156 -24 72 -59
113 -95 113 -25 0 -28 -3 -21 -17 5 -10 8 -36 7 -57 -2 -31 -9 -46 -38 -73
-21 -18 -37 -39 -37 -47 0 -7 11 -42 24 -77 44 -121 42 -154 -9 -141 -23 6
-47 33 -102 112 -79 112 -86 138 -58 206 12 30 18 34 40 28 24 -6 25 -4 25 37
0 77 -4 83 -84 107 -92 28 -98 28 -91 0 21 -92 31 -159 25 -163 -10 -6 -73 92
-130 200 -67 127 -83 155 -89 155 -3 0 -25 -28 -48 -63z"/>
<path d="M3477 2278 c-37 -99 -51 -200 -51 -373 0 -263 17 -370 70 -422 11
-11 7 -23 -19 -65 l-32 -51 -1 -191 c0 -197 -2 -213 -33 -306 -53 -155 -62
-333 -22 -460 46 -147 177 -303 301 -359 63 -28 139 -24 214 13 76 37 194 153
230 224 46 90 74 222 74 344 1 288 -132 534 -326 604 -95 34 -138 59 -188 110
-73 74 -76 90 -44 204 30 105 38 146 46 265 3 44 16 126 30 182 30 127 31 166
3 194 -23 23 -60 20 -93 -9 -18 -16 -126 -231 -126 -251 0 -5 -5 -13 -11 -17
-9 -5 -10 19 -5 89 4 52 9 104 11 115 2 11 5 60 7 108 3 100 -10 119 -35 52z
m173 -1189 c-20 -67 -74 -111 -117 -95 -14 6 -8 16 34 59 27 29 56 59 64 68
19 22 29 4 19 -32z m349 -28 c64 -60 71 -70 55 -79 -19 -11 -66 -1 -91 19 -30
25 -66 129 -45 129 4 0 40 -31 81 -69z m-122 -13 c66 -72 35 -170 -59 -185
-62 -10 -166 66 -152 111 12 39 57 88 97 106 46 21 72 13 114 -32z m-231 -177
c30 -87 17 -181 -36 -268 -29 -47 -66 -46 -86 4 -23 54 -28 130 -14 198 10 49
20 67 53 98 22 20 45 36 51 34 6 -2 20 -32 32 -66z m376 -3 c73 -99 85 -243
23 -284 -23 -15 -27 -15 -50 0 -68 45 -102 212 -58 287 23 39 54 38 85 -3z
m-575 -260 c11 -13 26 -34 33 -46 18 -36 22 -139 7 -169 -13 -24 -14 -23 -27
34 -7 32 -14 63 -16 68 -2 13 -23 94 -30 118 -7 24 9 21 33 -5z m713 5 c0 -5
-9 -45 -19 -91 -21 -93 -19 -84 -28 -134 -6 -43 -17 -48 -33 -17 -24 43 -2
158 42 222 18 25 38 36 38 20z m-465 -113 c30 -29 65 -109 71 -168 5 -39 2
-51 -15 -69 -30 -32 -72 -34 -103 -6 -27 24 -76 129 -83 177 -6 39 -4 45 24
69 36 30 72 29 106 -3z m301 5 c56 -56 -2 -222 -88 -254 -33 -12 -72 0 -82 24
-22 58 11 178 64 234 18 18 30 22 56 18 19 -3 41 -13 50 -22z m-164 -349 c25
-18 15 -23 -49 -25 -60 -2 -72 10 -42 38 23 21 47 17 91 -13z"/>
<path d="M2352 1653 c-10 -16 -34 -55 -52 -88 -19 -33 -48 -80 -66 -105 -66
-94 -112 -215 -130 -350 -2 -14 -17 -104 -33 -200 -25 -148 -29 -195 -26 -304
4 -123 4 -128 -14 -112 -9 9 -22 16 -28 16 -5 0 -26 -36 -46 -80 -66 -144 -45
-222 77 -284 34 -17 64 -41 76 -62 35 -56 73 -72 171 -70 77 1 88 4 117 28 18
15 32 30 32 34 0 4 -38 46 -84 93 -77 79 -119 144 -132 205 -11 47 -5 169 11
223 9 32 63 159 120 283 168 368 195 432 195 463 0 13 -13 2 -45 -37 -55 -67
-115 -110 -175 -126 -83 -22 -104 -47 -146 -183 -15 -48 -19 -55 -26 -38 -4
12 -6 55 -4 96 4 79 12 99 117 295 36 67 104 240 95 240 -2 0 2 20 10 45 15
52 13 56 -14 18z"/>
</g>
</svg>
